<?xml version="1.0" encoding="UTF-8" standalone="no"?>
<!-- Created with Inkscape (http://www.inkscape.org/) -->

<svg
   xmlns:dc="http://purl.org/dc/elements/1.1/"
   xmlns:cc="http://creativecommons.org/ns#"
   xmlns:rdf="http://www.w3.org/1999/02/22-rdf-syntax-ns#"
   xmlns:svg="http://www.w3.org/2000/svg"
   xmlns="http://www.w3.org/2000/svg"
   xmlns:sodipodi="http://sodipodi.sourceforge.net/DTD/sodipodi-0.dtd"
   xmlns:inkscape="http://www.inkscape.org/namespaces/inkscape"
   width="219.65508mm"
   height="27.392841mm"
   viewBox="0 0 219.65508 27.392841"
   version="1.1"
   id="svg988"
   inkscape:version="0.92.4 (5da689c313, 2019-01-14)"
   sodipodi:docname="tom-1.svg">
  <defs
     id="defs982" />
  <sodipodi:namedview
     id="base"
     pagecolor="#ffffff"
     bordercolor="#666666"
     borderopacity="1.0"
     inkscape:pageopacity="0.0"
     inkscape:pageshadow="2"
     inkscape:zoom="0.35"
     inkscape:cx="55.096199"
     inkscape:cy="-31.091126"
     inkscape:document-units="mm"
     inkscape:current-layer="layer1"
     showgrid="false"
     inkscape:pagecheckerboard="true"
     fit-margin-top="0"
     fit-margin-left="0"
     fit-margin-right="0"
     fit-margin-bottom="0"
     inkscape:window-width="640"
     inkscape:window-height="939"
     inkscape:window-x="0"
     inkscape:window-y="0"
     inkscape:window-maximized="1" />
  <metadata
     id="metadata985">
    <rdf:RDF>
      <cc:Work
         rdf:about="">
        <dc:format>image/svg+xml</dc:format>
        <dc:type
           rdf:resource="http://purl.org/dc/dcmitype/StillImage" />
        <dc:title></dc:title>
      </cc:Work>
    </rdf:RDF>
  </metadata>
  <g
     inkscape:label="Calque 1"
     inkscape:groupmode="layer"
     id="layer1"
     transform="translate(86.393012,-113.2143)">
    <g
       id="g12"
       transform="matrix(0.35277777,0,0,-0.35277777,-75.015929,139.94448)">
      <path
         d="M 0,0 H -7.515 V 67.212 H -32.25 v 6.68 h 56.985 v -6.68 L 0,67.212 Z"
         style="fill:#ff0000;fill-opacity:1;fill-rule:nonzero;stroke:none"
         id="path14"
         inkscape:connector-curvature="0" />
    </g>
    <g
       id="g24"
       transform="matrix(0.35277777,0,0,-0.35277777,-40.51744,126.92924)">
      <path
         d="m 0,0 c 0,4.307 -0.697,8.405 -2.087,12.296 -1.393,3.889 -3.411,7.31 -6.054,10.262 -2.645,2.952 -5.862,5.296 -9.654,7.033 -3.793,1.737 -8.054,2.606 -12.785,2.606 -4.732,0 -8.993,-0.869 -12.785,-2.606 -3.793,-1.737 -7.01,-4.081 -9.654,-7.033 -2.645,-2.952 -4.662,-6.373 -6.053,-10.262 C -60.464,8.405 -61.159,4.307 -61.159,0 c 0,-4.308 0.695,-8.406 2.087,-12.295 1.391,-3.892 3.408,-7.295 6.053,-10.212 2.644,-2.918 5.861,-5.244 9.654,-6.981 3.792,-1.737 8.053,-2.605 12.785,-2.605 4.731,0 8.992,0.868 12.785,2.605 3.792,1.737 7.009,4.063 9.654,6.981 2.643,2.917 4.661,6.32 6.054,10.212 C -0.697,-8.406 0,-4.308 0,0 m 7.932,0.052 c 0,-5.635 -0.975,-10.82 -2.923,-15.551 -1.948,-4.732 -4.644,-8.818 -8.088,-12.262 -3.444,-3.445 -7.514,-6.142 -12.211,-8.089 -4.696,-1.947 -9.794,-2.922 -15.29,-2.922 -5.497,0 -10.593,0.975 -15.29,2.922 -4.696,1.947 -8.766,4.644 -12.21,8.089 -3.444,3.444 -6.142,7.53 -8.089,12.262 -1.949,4.731 -2.922,9.916 -2.922,15.551 0,5.636 0.973,10.819 2.922,15.551 1.947,4.73 4.645,8.819 8.089,12.263 3.444,3.444 7.514,6.14 12.21,8.089 4.697,1.946 9.793,2.922 15.29,2.922 5.496,0 10.594,-0.976 15.29,-2.922 4.697,-1.949 8.767,-4.645 12.211,-8.089 C 0.365,24.422 3.061,20.333 5.009,15.603 6.957,10.871 7.932,5.688 7.932,0.052"
         style="fill:#ff0000;fill-opacity:1;fill-rule:nonzero;stroke:none"
         id="path26"
         inkscape:connector-curvature="0" />
    </g>
    <g
       id="g28"
       transform="matrix(0.35277777,0,0,-0.35277777,-19.310485,135.45256)">
      <path
         d="M 0,0 H 0.104 L 24.839,61.159 H 36.32 V -12.733 H 28.805 V 51.453 H 28.597 L 1.878,-12.733 h -3.965 l -26.718,64.186 h -0.209 v -64.186 h -7.514 v 73.892 h 11.48 z"
         style="fill:#ff0000;fill-opacity:1;fill-rule:nonzero;stroke:none"
         id="path30"
         inkscape:connector-curvature="0" />
    </g>
    <g
       id="g32"
       transform="matrix(0.35277777,0,0,-0.35277777,23.287788,139.94448)">
      <path
         d="M 0,0 0.418,52.288 H 0.104 L -19.1,0 h -12.523 l -18.682,52.288 h -0.313 L -50.201,0 h -16.803 v 73.892 h 25.393 l 16.824,-47.383 h 0.418 l 16.092,47.383 h 25.81 L 17.533,0 Z"
         style="fill:#ff0000;fill-opacity:1;fill-rule:nonzero;stroke:none"
         id="path34"
         inkscape:connector-curvature="0" />
    </g>
    <g
       id="g36"
       transform="matrix(0.35277777,0,0,-0.35277777,47.476488,128.89897)">
      <path
         d="M 0,0 V -31.31 H -17.847 V 0 l -27.76,42.582 h 21.603 L -8.244,15.237 7.515,42.582 h 20.873 z"
         style="fill:#ff0000;fill-opacity:1;fill-rule:nonzero;stroke:none"
         id="path38"
         inkscape:connector-curvature="0" />
    </g>
    <g
       id="g40"
       transform="matrix(0.35277777,0,0,-0.35277777,77.225918,126.83709)">
      <path
         d="m 0,0 c 0,4.174 -0.679,7.635 -2.035,10.384 -1.358,2.748 -3.167,4.94 -5.428,6.575 -2.262,1.634 -4.837,2.8 -7.723,3.497 -2.888,0.694 -5.862,1.044 -8.923,1.044 h -8.871 v -43.208 h 8.454 c 3.199,0 6.278,0.365 9.236,1.095 2.956,0.731 5.565,1.931 7.827,3.601 2.261,1.67 4.07,3.896 5.428,6.679 C -0.679,-7.55 0,-4.106 0,0 m 18.577,0 c 0,-6.471 -1.2,-12.055 -3.6,-16.751 -2.401,-4.697 -5.568,-8.558 -9.498,-11.585 -3.932,-3.026 -8.368,-5.254 -13.307,-6.679 -4.941,-1.427 -9.95,-2.14 -15.028,-2.14 h -27.553 v 73.892 h 26.718 c 5.217,0 10.366,-0.61 15.446,-1.826 5.078,-1.219 9.601,-3.236 13.567,-6.054 3.966,-2.818 7.165,-6.593 9.602,-11.324 C 17.358,12.801 18.577,6.957 18.577,0"
         style="fill:#000000;fill-opacity:1;fill-rule:nonzero;stroke:none"
         id="path42"
         inkscape:connector-curvature="0" />
    </g>
    <g
       id="g44"
       transform="matrix(0.35277777,0,0,-0.35277777,87.939498,139.94448)">
      <path
         d="M 0,0 V 73.892 H 49.678 V 58.863 H 17.22 V 44.878 H 47.904 V 30.58 H 17.22 V 15.237 H 51.557 V 0 Z"
         style="fill:#000000;fill-opacity:1;fill-rule:nonzero;stroke:none"
         id="path46"
         inkscape:connector-curvature="0" />
    </g>
    <g
       id="g48"
       transform="matrix(0.35277777,0,0,-0.35277777,123.21107,139.94448)">
      <path
         d="m 0,0 h -17.847 l -27.97,73.892 h 20.038 L -8.663,21.5 h 0.418 L 8.767,73.892 h 19.724 z"
         style="fill:#000000;fill-opacity:1;fill-rule:nonzero;stroke:none"
         id="path50"
         inkscape:connector-curvature="0" />
    </g>
  </g>
</svg>
