<?xml version="1.0" encoding="UTF-8" standalone="no"?>
<!-- Created with Inkscape (http://www.inkscape.org/) -->

<svg
   xmlns:dc="http://purl.org/dc/elements/1.1/"
   xmlns:cc="http://creativecommons.org/ns#"
   xmlns:rdf="http://www.w3.org/1999/02/22-rdf-syntax-ns#"
   xmlns:svg="http://www.w3.org/2000/svg"
   xmlns="http://www.w3.org/2000/svg"
   xmlns:sodipodi="http://sodipodi.sourceforge.net/DTD/sodipodi-0.dtd"
   xmlns:inkscape="http://www.inkscape.org/namespaces/inkscape"
   width="222.89548mm"
   height="38.627399mm"
   viewBox="0 0 222.89548 38.627399"
   version="1.1"
   id="svg1639"
   inkscape:version="0.92.4 (5da689c313, 2019-01-14)"
   sodipodi:docname="tom-3.svg">
  <defs
     id="defs1633" />
  <sodipodi:namedview
     id="base"
     pagecolor="#ffffff"
     bordercolor="#666666"
     borderopacity="1.0"
     inkscape:pageopacity="0.0"
     inkscape:pageshadow="2"
     inkscape:zoom="0.49497475"
     inkscape:cx="308.0228"
     inkscape:cy="310.21971"
     inkscape:document-units="mm"
     inkscape:current-layer="layer1"
     showgrid="false"
     inkscape:pagecheckerboard="true"
     fit-margin-top="0"
     fit-margin-left="0"
     fit-margin-right="0"
     fit-margin-bottom="0"
     inkscape:window-width="1280"
     inkscape:window-height="939"
     inkscape:window-x="0"
     inkscape:window-y="0"
     inkscape:window-maximized="1" />
  <metadata
     id="metadata1636">
    <rdf:RDF>
      <cc:Work
         rdf:about="">
        <dc:format>image/svg+xml</dc:format>
        <dc:type
           rdf:resource="http://purl.org/dc/dcmitype/StillImage" />
        <dc:title></dc:title>
      </cc:Work>
    </rdf:RDF>
  </metadata>
  <g
     inkscape:label="Calque 1"
     inkscape:groupmode="layer"
     id="layer1"
     transform="translate(55.507259,-202.09106)">
    <g
       id="g52"
       transform="matrix(0.35277777,0,0,-0.35277777,-41.847704,213.42669)">
      <path
         d="M 0,0 V -58.654 H -17.847 V 0 H -38.72 V 15.236 H 20.874 V 0 Z"
         style="fill:#000300;fill-opacity:1;fill-rule:nonzero;stroke:none"
         id="path54"
         inkscape:connector-curvature="0" />
    </g>
    <g
       id="g56"
       transform="matrix(0.35277777,0,0,-0.35277777,-12.28274,220.9749)">
      <path
         d="m 0,0 c 0,3.2 -0.522,6.192 -1.565,8.977 -1.044,2.781 -2.489,5.166 -4.332,7.148 -1.844,1.983 -4.07,3.549 -6.679,4.697 -2.61,1.148 -5.48,1.722 -8.611,1.722 -3.13,0 -5.984,-0.574 -8.558,-1.722 -2.575,-1.148 -4.8,-2.714 -6.679,-4.697 -1.879,-1.982 -3.324,-4.367 -4.331,-7.148 C -41.765,6.192 -42.269,3.2 -42.269,0 c 0,-3.339 0.522,-6.418 1.566,-9.236 1.043,-2.818 2.487,-5.237 4.331,-7.253 1.843,-2.019 4.052,-3.601 6.627,-4.749 2.574,-1.149 5.428,-1.722 8.558,-1.722 3.131,0 5.983,0.573 8.559,1.722 2.573,1.148 4.8,2.73 6.679,4.749 1.879,2.016 3.34,4.435 4.384,7.253 C -0.522,-6.418 0,-3.339 0,0 m 19.099,0 c 0,-5.844 -1.01,-11.185 -3.027,-16.02 -2.018,-4.836 -4.819,-8.975 -8.401,-12.419 -3.585,-3.444 -7.846,-6.106 -12.785,-7.985 -4.941,-1.878 -10.298,-2.817 -16.073,-2.817 -5.776,0 -11.115,0.939 -16.02,2.817 -4.905,1.879 -9.15,4.541 -12.732,7.985 -3.585,3.444 -6.385,7.583 -8.402,12.419 -2.019,4.835 -3.027,10.176 -3.027,16.02 0,5.914 1.008,11.254 3.027,16.021 2.017,4.765 4.817,8.819 8.402,12.159 3.582,3.34 7.827,5.913 12.732,7.722 4.905,1.809 10.244,2.714 16.02,2.714 5.775,0 11.132,-0.905 16.073,-2.714 4.939,-1.809 9.2,-4.382 12.785,-7.722 3.582,-3.34 6.383,-7.394 8.401,-12.159 C 18.089,11.254 19.099,5.914 19.099,0"
         style="fill:#000300;fill-opacity:1;fill-rule:nonzero;stroke:none"
         id="path58"
         inkscape:connector-curvature="0" />
    </g>
    <g
       id="g60"
       transform="matrix(0.35277777,0,0,-0.35277777,22.252616,234.11862)">
      <path
         d="M 0,0 0.417,52.287 H 0.104 L -19.099,0 h -12.524 l -18.682,52.287 h -0.313 L -50.2,0 h -16.803 v 73.891 h 25.392 l 16.824,-47.382 h 0.417 L -8.277,73.891 H 17.534 V 0 Z"
         style="fill:#000300;fill-opacity:1;fill-rule:nonzero;stroke:none"
         id="path62"
         inkscape:connector-curvature="0" />
    </g>
    <g
       id="g64"
       transform="matrix(0.35277777,0,0,-0.35277777,57.413591,234.11862)">
      <path
         d="M 0,0 0.418,52.287 H 0.104 L -19.099,0 h -12.524 l -18.682,52.287 h -0.313 L -50.2,0 h -16.803 v 73.891 h 25.392 l 16.824,-47.382 h 0.418 L -8.277,73.891 H 17.534 V 0 Z"
         style="fill:#000300;fill-opacity:1;fill-rule:nonzero;stroke:none"
         id="path66"
         inkscape:connector-curvature="0" />
    </g>
    <g
       id="g68"
       transform="matrix(0.35277777,0,0,-0.35277777,81.602641,223.07329)">
      <path
         d="M 0,0 V -31.31 H -17.847 V 0 l -27.76,42.581 h 21.603 L -8.244,15.237 7.515,42.581 h 20.873 z"
         style="fill:#000300;fill-opacity:1;fill-rule:nonzero;stroke:none"
         id="path70"
         inkscape:connector-curvature="0" />
    </g>
    <g
       id="g72"
       transform="matrix(0.35277777,0,0,-0.35277777,111.35172,221.01141)">
      <path
         d="m 0,0 c 0,4.174 -0.679,7.635 -2.035,10.385 -1.358,2.747 -3.167,4.939 -5.428,6.574 -2.262,1.635 -4.837,2.801 -7.723,3.496 -2.888,0.695 -5.862,1.045 -8.923,1.045 h -8.871 v -43.209 h 8.454 c 3.199,0 6.278,0.365 9.236,1.096 2.956,0.73 5.565,1.931 7.827,3.601 2.261,1.67 4.07,3.896 5.428,6.68 C -0.679,-7.551 0,-4.106 0,0 m 18.577,0 c 0,-6.471 -1.2,-12.055 -3.6,-16.751 -2.401,-4.696 -5.568,-8.558 -9.498,-11.585 -3.932,-3.026 -8.368,-5.254 -13.307,-6.68 -4.941,-1.426 -9.95,-2.138 -15.028,-2.138 h -27.553 v 73.89 h 26.718 c 5.217,0 10.366,-0.609 15.446,-1.826 5.078,-1.218 9.601,-3.234 13.567,-6.053 3.966,-2.818 7.165,-6.593 9.602,-11.324 C 17.358,12.801 18.577,6.957 18.577,0"
         style="fill:#ff0000;fill-opacity:1;fill-rule:nonzero;stroke:none"
         id="path74"
         inkscape:connector-curvature="0" />
    </g>
    <g
       id="g76"
       transform="matrix(0.35277777,0,0,-0.35277777,122.0653,234.11862)">
      <path
         d="M 0,0 V 73.891 H 49.678 V 58.862 H 17.22 V 44.877 H 47.904 V 30.579 H 17.22 V 15.236 H 51.557 V 0 Z"
         style="fill:#ff0000;fill-opacity:1;fill-rule:nonzero;stroke:none"
         id="path78"
         inkscape:connector-curvature="0" />
    </g>
    <g
       id="g80"
       transform="matrix(0.35277777,0,0,-0.35277777,157.33722,234.11862)">
      <path
         d="m 0,0 h -17.847 l -27.97,73.891 h 20.038 L -8.663,21.499 h 0.418 L 8.767,73.891 h 19.724 z"
         style="fill:#ff0000;fill-opacity:1;fill-rule:nonzero;stroke:none"
         id="path82"
         inkscape:connector-curvature="0" />
    </g>
    <path
       d="M 88.946241,203.67856 H 33.386563 v -1.5875 h 55.559678 z"
       style="fill:#ff0000;fill-opacity:1;fill-rule:nonzero;stroke:none;stroke-width:0.35277775"
       id="path84"
       inkscape:connector-curvature="0" />
    <path
       d="M 88.946241,240.71846 H 33.386563 v -1.5875 h 55.559678 z"
       style="fill:#ff0000;fill-opacity:1;fill-rule:nonzero;stroke:none;stroke-width:0.35277775"
       id="path86"
       inkscape:connector-curvature="0" />
  </g>
</svg>
